<?xml version="1.0" encoding="utf-8"?><svg version="1.1" id="Layer_1" xmlns="http://www.w3.org/2000/svg" xmlns:xlink="http://www.w3.org/1999/xlink" x="0px" y="0px" viewBox="0 0 122.88 70.09" style="enable-background:new 0 0 122.88 70.09" xml:space="preserve"><style type="text/css">.st0{fill-rule:evenodd;clip-rule:evenodd;}</style><g><path class="st0" d="M45.63,32.77c3.56,0,6.45,2.89,6.45,6.45c0,3.56-2.89,6.45-6.45,6.45c-3.56,0-6.45-2.89-6.45-6.45 C39.18,35.65,42.07,32.77,45.63,32.77L45.63,32.77z M61.44,7.74c12.62,0,24.19,3.01,32.7,7.87c5.17,2.95,9.31,6.62,12.07,10.81 c1.23,0.11,2.41,0.29,3.52,0.52c0.11,0.02,0.22,0.05,0.32,0.07V12.02c-1.92-1.11-3.22-3.19-3.22-5.58c0-3.56,2.88-6.44,6.44-6.44 c3.56,0,6.44,2.88,6.44,6.44c0,2.38-1.29,4.46-3.22,5.58v17.43c2.55,1.51,4.66,3.64,5.72,6.57c1.82,5.01-0.12,10.84-5.57,14.02 c-2.92,1.7-6.54,2.53-10.98,2.23l0-0.06c-2.75,3.85-6.68,7.24-11.52,10.01c-8.51,4.86-20.08,7.87-32.7,7.87 c-12.62,0-24.19-3.01-32.7-7.87c-4.84-2.76-8.77-6.15-11.52-10.01l0,0.06c-4.44,0.29-8.06-0.53-10.98-2.23 c-5.46-3.18-7.39-9.01-5.57-14.02c1.06-2.93,3.17-5.06,5.72-6.57V12.02C4.46,10.9,3.17,8.82,3.17,6.44C3.17,2.88,6.05,0,9.6,0 c3.56,0,6.44,2.88,6.44,6.44c0,2.38-1.29,4.46-3.22,5.58V27c0.11-0.02,0.22-0.05,0.32-0.07c1.11-0.23,2.28-0.4,3.52-0.52 c2.76-4.19,6.9-7.86,12.07-10.81C37.25,10.75,48.82,7.74,61.44,7.74L61.44,7.74z M86.36,29.31c-6.24-3.56-15.04-5.77-24.92-5.77 c-9.88,0-18.68,2.2-24.92,5.77c-4.89,2.79-7.92,6.22-7.92,9.6c0,3.39,3.03,6.81,7.92,9.6c6.24,3.56,15.04,5.77,24.92,5.77 c9.88,0,18.68-2.2,24.92-5.77c4.89-2.79,7.92-6.22,7.92-9.6C94.28,35.53,91.25,32.11,86.36,29.31L86.36,29.31z M78.62,32.77 c3.56,0,6.45,2.89,6.45,6.45c0,3.56-2.89,6.45-6.45,6.45s-6.45-2.89-6.45-6.45C72.17,35.65,75.06,32.77,78.62,32.77L78.62,32.77z"/></g></svg>